<svg width="60" height="60" viewBox="0 0 60 60" fill="none" xmlns="http://www.w3.org/2000/svg">
<circle cx="30" cy="30" r="30" fill="white"/>
<path d="M4.93898 37.8203C4.93898 37.8203 4.75596 37.0241 4.76489 36.9165C4.77382 36.809 8.06958 38.0937 8.06958 38.0937L13.9246 37.9099L19.5653 37.163L25.3251 37.4991L28.8962 38.8675L32.119 38.5104L34.9892 37.5619L41.8159 37.1839C41.8159 37.1839 47.7423 37.5081 47.775 37.5395C47.8078 37.5708 52.8876 37.7635 52.8876 37.7635L55.4349 36.6641L55.3531 36.8314C55.3531 36.8314 55.1343 37.3214 54.9543 37.65L54.7921 37.9697L53.572 38.9422C53.572 38.9422 50.2554 40.0118 50.2019 40.0177C50.1483 40.0237 48.3404 40.3598 48.3404 40.3598C48.3404 40.3598 44.6444 40.3822 44.6013 40.3598C44.5581 40.3374 38.8311 39.7354 38.8311 39.7354L32.6428 40.2209C32.6428 40.2209 30.1207 40.7602 30.0984 40.7706C30.0761 40.7811 28.1507 40.8349 28.1076 40.8244C28.0644 40.8139 20.6679 39.5516 20.6679 39.5516L16.8439 40.0267C16.8439 40.0267 12.6167 40.7049 12.5438 40.7049C12.4709 40.7049 8.37759 40.1238 8.37759 40.1238L5.66211 38.5672L4.93898 37.8203Z" fill="#800000"/>
<path d="M2 31.3632C2.31992 31.4483 2.61305 31.6067 2.93148 31.7008C3.74839 31.9398 4.55786 31.8233 5.36732 31.6739C6.17679 31.5245 6.99519 31.3034 7.81953 31.16C9.03436 30.9557 10.2824 31.1359 11.3907 31.6754C11.7302 31.8253 12.0593 31.998 12.3758 32.1923C12.4232 32.2257 12.4793 32.2445 12.5371 32.2463C12.595 32.2482 12.6522 32.233 12.7016 32.2028C13.5248 31.7629 14.419 31.4727 15.3428 31.3453C16.1568 31.2437 16.9469 31.3736 17.7236 31.5753C18.5792 31.7949 19.4125 32.0892 20.277 32.2819C21.1404 32.4957 22.0481 32.4404 22.8795 32.1236C22.939 32.1012 23.0119 32.0295 23.0714 32.1012C23.131 32.1729 23.0625 32.2237 23.0417 32.279C22.7322 33.1021 22.0983 33.5293 21.274 33.6892C20.0836 33.9207 18.9408 33.6578 17.8307 33.2201C17.3174 33.0169 16.8115 32.7719 16.2564 32.7241C14.9173 32.6121 13.6406 32.8108 12.5826 33.7489C12.4963 33.8251 12.4606 33.8251 12.3802 33.74C11.6481 32.9617 10.6958 32.6644 9.67952 32.503C8.86559 32.3746 8.0963 32.5493 7.33594 32.8153C6.5043 33.1213 5.62354 33.2707 4.7379 33.256C4.0936 33.238 3.46865 33.1215 2.91214 32.757C2.51903 32.5014 2.22374 32.1196 2.0744 31.6739C2.05506 31.6172 2.0625 31.5454 2 31.5051V31.3632Z" fill="#D2AC68"/>
<path d="M56.7239 35.2335C56.631 35.5627 56.4511 35.8605 56.2032 36.0954C55.4012 36.9618 54.3998 37.522 53.3344 37.9702C51.983 38.5575 50.5178 38.8337 49.0462 38.7783C47.7071 38.7216 46.3679 38.5886 45.0407 38.4243C43.8191 38.2749 42.6005 38.1166 41.3729 38.0135C40.3033 37.9209 39.2289 37.8955 38.156 37.9373C35.4778 38.0538 32.8486 38.4377 30.3474 39.455C30.2168 39.5167 30.0743 39.5487 29.93 39.5487C29.7857 39.5487 29.6432 39.5167 29.5127 39.455C28.0723 38.8485 26.5606 38.5005 25.0221 38.26C23.3375 37.9936 21.632 37.8841 19.9274 37.9328C18.7118 37.9672 17.505 38.1001 16.2983 38.245C15.1244 38.3869 13.9519 38.5438 12.7734 38.6514C11.9334 38.7425 11.0889 38.7859 10.2439 38.7813C8.04038 38.7356 5.91173 37.9699 4.18062 36.6003C3.80425 36.3189 3.48928 35.963 3.25513 35.5546C3.18909 35.4563 3.1454 35.3446 3.12717 35.2275L3.148 35.2051C4.34281 36.3001 5.81288 36.7751 7.35736 37.0739C9.02235 37.3935 10.6992 37.3726 12.3806 37.2337C14.062 37.0948 15.7627 36.8349 17.4559 36.6601C18.6795 36.5155 19.9112 36.4521 21.143 36.4704C23.9002 36.5495 26.6171 36.8886 29.2076 37.8955C29.4334 37.9971 29.6781 38.0496 29.9256 38.0496C30.173 38.0496 30.4177 37.9971 30.6435 37.8955C32.1463 37.2785 33.7309 36.9588 35.3364 36.7363C36.712 36.5426 38.1003 36.4537 39.4892 36.4704C40.7905 36.5019 42.0893 36.6016 43.3802 36.7691C44.7193 36.929 46.0584 37.1097 47.3976 37.2173C48.4041 37.3093 49.4156 37.3358 50.4255 37.2965C52.0444 37.2218 53.6201 36.9349 55.108 36.2508C55.6898 35.9861 56.2278 35.6334 56.7031 35.2051L56.7239 35.2335Z" fill="#FF9933"/>
<path d="M4.90742 37.6834C6.21085 38.9815 7.86394 39.476 9.61078 39.7389C11.2906 39.9958 12.9661 39.8599 14.64 39.6612C16.3809 39.4551 18.1098 39.1548 19.8596 39.0398C21.477 38.9406 23.1 38.9941 24.7073 39.1996C26.1436 39.3527 27.5566 39.6766 28.9167 40.1646C29.2143 40.2752 29.4985 40.4066 29.7856 40.5366C29.826 40.5587 29.8713 40.5703 29.9173 40.5703C29.9633 40.5703 30.0086 40.5587 30.049 40.5366C31.3881 39.8853 32.8076 39.5507 34.2584 39.3131C35.6942 39.0842 37.1463 38.9743 38.6001 38.9845C39.982 39.0086 41.3607 39.1234 42.7277 39.3281C44.662 39.5895 46.5888 39.9047 48.547 39.8689C50.203 39.8375 51.8115 39.5611 53.3202 38.8321C53.9369 38.5459 54.4927 38.1426 54.957 37.6445C54.8883 37.8637 54.7928 38.0734 54.6728 38.269C54.2926 38.8364 53.8034 39.3219 53.2339 39.6971C51.4819 40.9355 49.3523 41.5171 47.2167 41.3403C45.5473 41.2133 43.8912 40.9773 42.2322 40.7532C40.0481 40.445 37.8348 40.4028 35.6406 40.6277C33.9623 40.8085 32.3062 41.1072 30.7171 41.7332C30.4463 41.8392 30.1814 42.0499 29.9136 42.0484C29.6458 42.0469 29.3809 41.8377 29.1101 41.7302C27.7293 41.1804 26.283 40.8876 24.8204 40.6979C23.3548 40.5098 21.8762 40.4438 20.3998 40.5007C19.0948 40.55 17.8048 40.7293 16.5133 40.9041C14.8007 41.1371 13.091 41.4254 11.3517 41.3522C9.17332 41.2566 7.28216 40.4171 5.68561 38.9277C5.22435 38.49 4.97587 38.0494 4.90742 37.6834Z" fill="#14880A"/>
<path d="M30.2267 26.4496C30.4053 26.1971 30.5794 25.973 30.7297 25.734C31.1761 25.0244 31.249 24.2401 31.1761 23.423C31.1032 22.5879 30.996 21.7558 30.9276 20.9207C30.8041 19.4447 31.3576 18.2122 32.3188 17.1337C32.5182 16.9096 32.7221 16.6855 32.9393 16.4793C32.9884 16.4418 33.0214 16.3871 33.0319 16.3261C33.0424 16.2652 33.0295 16.2025 32.9959 16.1507C32.6522 15.3932 32.4432 14.5812 32.3784 13.7515C32.3402 12.9967 32.4938 12.2446 32.8248 11.5659C33.1655 10.8324 33.603 10.1527 33.9928 9.44606C34.1632 9.13361 34.3162 8.81193 34.4511 8.48249C34.7544 7.76846 34.7908 6.96855 34.5538 6.2297C34.5345 6.16396 34.4735 6.08031 34.5285 6.02951C34.5836 5.97872 34.6773 6.03848 34.7398 6.06835C35.9644 6.61363 36.4808 7.75198 36.1445 9.15923C35.9495 9.94648 35.5949 10.6849 35.1029 11.3284C34.9615 11.5181 34.8261 11.7123 34.6862 11.9035C34.0092 12.8223 33.9155 13.856 34.1059 14.9376C34.2044 15.5506 34.4785 16.1216 34.8946 16.5809C34.9749 16.6691 34.9779 16.7019 34.8633 16.7617C33.6729 17.3891 33.0301 18.4154 32.7474 19.6987C32.6135 20.2962 32.734 20.8938 32.8813 21.4824C33.1238 22.4564 33.1997 23.4334 32.9423 24.4164C32.6179 25.7206 31.5347 26.5273 30.2267 26.4496Z" fill="#D2AC68"/>
<path d="M29.6028 26.4492C28.2472 26.5299 27.1536 25.6545 26.8456 24.2353C26.6722 23.3787 26.6961 22.4937 26.9155 21.6478C27.0107 21.2475 27.1342 20.8501 27.1298 20.4348C27.1119 18.8199 26.3992 17.5964 25.0109 16.7882C24.8621 16.703 24.8621 16.6717 24.9692 16.5477C25.4974 15.9501 25.7251 15.2271 25.7995 14.4443C25.8518 13.9184 25.7968 13.3874 25.6376 12.8837C25.4785 12.38 25.2186 11.9141 24.874 11.5147C24.2504 10.762 23.8253 9.86409 23.6374 8.9034C23.3979 7.64853 23.9886 6.51316 25.1388 6.04707C25.1924 6.02466 25.2519 5.9664 25.31 6.02615C25.3457 6.06201 25.3219 6.11579 25.31 6.1606C24.8918 7.34377 25.2683 8.40145 25.8352 9.42328C26.1923 10.0671 26.5792 10.6976 26.9155 11.3489C27.5434 12.544 27.6178 13.775 27.2443 15.0553C27.1396 15.4287 27.0073 15.7937 26.8485 16.1473C26.8149 16.2038 26.8039 16.271 26.8177 16.3353C26.8316 16.3996 26.8691 16.4563 26.9229 16.4939C27.6059 17.1617 28.2115 17.8877 28.5925 18.7781C28.8883 19.5093 28.9943 20.304 28.9005 21.0876C28.8246 21.9078 28.7189 22.7309 28.655 23.5436C28.5776 24.5535 28.8038 25.4857 29.4853 26.2595C29.5269 26.3058 29.5626 26.3596 29.5998 26.4089C29.6024 26.4222 29.6034 26.4357 29.6028 26.4492Z" fill="#D2AC68"/>
<path d="M27.7534 26.8177C26.8427 27.2285 25.6702 27 24.9351 26.2784C24.2001 25.5569 23.8176 24.6217 23.6197 23.6178C23.4962 22.9903 23.5215 22.3271 23.2492 21.7385C22.5871 20.2998 21.4562 19.4453 19.8908 19.1466C20.0591 18.7865 20.1474 18.394 20.1497 17.9963C20.1244 16.5487 19.6185 15.3416 18.3805 14.5095C17.7437 14.0822 17.1187 13.6386 16.6143 13.047C16.1098 12.4554 15.7125 11.7936 15.6248 10.9839C15.5504 10.3042 16.0027 9.36003 16.6277 9C16.6544 9.25844 16.6619 9.50942 16.711 9.74695C16.8558 10.3929 17.1816 10.9838 17.6499 11.45C18.2598 12.0709 18.9089 12.6518 19.5932 13.1889C20.9577 14.3138 21.6377 15.7509 21.5648 17.5107C21.541 18.0739 21.6958 18.3518 22.2136 18.5878C23.0958 18.9724 23.8622 19.5822 24.4366 20.3566C24.9232 21.0289 25.1672 21.8072 25.3696 22.5975C25.5348 23.2413 25.6821 23.8882 25.883 24.5231C26.1442 25.4408 26.751 26.2203 27.5748 26.6967C27.6284 26.7311 27.679 26.7654 27.7534 26.8177Z" fill="#D2AC68"/>
<path d="M32.1145 26.809C32.3095 26.6745 32.5074 26.5475 32.6978 26.4086C33.2376 26.0009 33.6438 25.4406 33.8644 24.7997C34.1496 23.9772 34.3807 23.1368 34.5563 22.284C34.9536 20.5974 35.9818 19.4456 37.4758 18.6538C37.6781 18.5462 37.879 18.4342 38.0888 18.3446C38.1513 18.3267 38.2049 18.2863 38.2395 18.2312C38.2741 18.1761 38.2872 18.11 38.2763 18.0458C38.2232 17.238 38.3057 16.4269 38.5203 15.6466C38.8045 14.6531 39.4548 13.9166 40.1988 13.2489C40.852 12.6618 41.5514 12.1284 42.1615 11.4935C42.6971 10.9378 43.0736 10.2984 43.1718 9.52309C43.1926 9.36026 43.203 9.19443 43.2194 9.01367C43.3269 9.04001 43.4224 9.10215 43.4902 9.18995C44.2342 9.90105 44.4247 10.9214 43.9842 11.8954C43.5884 12.7708 42.9426 13.4371 42.1867 14.0033C41.8326 14.2677 41.4606 14.5097 41.1124 14.7816C40.2791 15.4344 39.9027 16.3383 39.7345 17.3526C39.6318 17.9591 39.7089 18.5825 39.9562 19.1453C38.4028 19.4441 37.2779 20.2941 36.6053 21.7148C36.3687 22.2138 36.3568 22.774 36.2764 23.3118C36.1098 24.4247 35.7527 25.457 34.9298 26.2592C34.1516 27.0151 33.2186 27.1854 32.1889 26.8777C32.1736 26.8733 32.1594 26.8656 32.1473 26.8553C32.1352 26.8407 32.1243 26.8252 32.1145 26.809Z" fill="#D2AC68"/>
<path d="M10.5471 13.377C10.6859 13.7728 10.8733 14.1497 11.1051 14.4989C11.5515 15.1353 12.2136 15.5043 12.8787 15.8538C13.5082 16.1825 14.1495 16.4902 14.7908 16.7965C16.3145 17.5255 17.2222 18.758 17.6239 20.3669C17.74 20.824 17.9215 21.0227 18.3918 21.1138C19.3709 21.2706 20.2962 21.6684 21.085 22.2716C21.7948 22.8318 22.2635 23.5863 22.7069 24.3631C23.0373 24.9397 23.3646 25.5164 23.7485 26.0631C24.2689 26.8117 25.0417 27.3456 25.924 27.566C25.9522 27.5735 25.9805 27.5839 26.0519 27.6078C25.6918 27.8789 25.2648 28.0463 24.8169 28.0918C23.6131 28.2218 22.7501 27.6153 22.0105 26.7608C21.5448 26.19 21.1721 25.5486 20.9065 24.8605C20.5617 24.0556 19.983 23.374 19.2459 22.9049C18.5089 22.4357 17.648 22.201 16.7758 22.2313C16.4618 22.2417 16.4782 22.2432 16.4886 21.9325C16.492 21.2632 16.3046 20.607 15.9485 20.0412C15.4298 19.1211 14.5766 18.438 13.5677 18.135C12.6622 17.8724 11.8225 17.4203 11.1036 16.8084C10.4384 16.2109 9.96972 15.5267 10.062 14.5795C10.1039 14.1399 10.2725 13.722 10.5471 13.377Z" fill="#D2AC68"/>
<path d="M49.2979 13.4082C49.9035 14.0775 49.9586 15.1665 49.4556 15.9792C49.0524 16.632 48.4601 17.0697 47.8188 17.4597C47.1775 17.8496 46.4796 18.0184 45.819 18.3142C44.3473 18.97 43.5661 20.1367 43.3504 21.7128C43.3463 21.7625 43.3463 21.8125 43.3504 21.8622C43.3638 22.2356 43.3638 22.2356 42.9977 22.2267C42.1373 22.2131 41.2922 22.4564 40.5696 22.9255C39.8469 23.3946 39.2793 24.0686 38.9385 24.8619C38.6697 25.5484 38.2973 26.1894 37.8344 26.7622C37.3002 27.3911 36.6767 27.8886 35.8494 28.0603C35.5016 28.1314 35.143 28.1309 34.7954 28.0587C34.4478 27.9866 34.1184 27.8443 33.8272 27.6406C33.86 27.542 33.9388 27.5629 33.9924 27.5479C34.9082 27.2939 35.698 26.7085 36.2095 25.9047C36.589 25.3295 36.9446 24.7394 37.266 24.1314C38.129 22.4881 39.4846 21.535 41.2657 21.1436C41.4557 21.0923 41.6485 21.0519 41.843 21.0226C42.0201 21.0047 42.0722 20.9165 42.1094 20.7597C42.3371 19.7931 42.6972 18.8878 43.3325 18.111C43.7789 17.5672 44.3503 17.1908 44.9544 16.8576C45.7297 16.4319 46.5555 16.1107 47.3248 15.6625C48.0093 15.2741 48.6298 14.8214 48.9914 14.0939C49.0985 13.8773 49.1893 13.6502 49.2979 13.4082Z" fill="#D2AC68"/>
<path d="M24.6075 28.9024C24.115 29.4432 23.5659 29.7449 22.8859 29.7987C21.8606 29.8719 21.0229 29.4237 20.2417 28.8172C19.6733 28.3691 19.2314 27.8148 18.7924 27.2546C18.1615 26.4494 17.3044 26.0595 16.3342 25.8533C15.609 25.6761 14.8481 25.714 14.1439 25.9624C14.0621 25.9923 14.016 25.9982 13.9951 25.8907C13.7585 24.6239 12.9238 23.8276 11.8822 23.2017C11.287 22.8446 10.6159 22.7804 9.94778 22.7117C8.78566 22.5907 7.68008 22.3053 6.73818 21.5658C6.35335 21.2813 6.07119 20.8787 5.93429 20.4189C5.79739 19.9592 5.81319 19.4672 5.97931 19.0173C5.98973 18.9889 6.00609 18.962 6.01949 18.9336C6.1043 18.9336 6.12067 19.0113 6.15192 19.0576C6.69057 19.8598 7.45689 20.3169 8.37051 20.5769C9.2142 20.8174 10.0728 20.9802 10.9284 21.1595C12.714 21.5315 13.9311 22.6041 14.7778 24.1607C14.82 24.2673 14.897 24.3563 14.9963 24.413C15.0956 24.4698 15.2111 24.4909 15.3239 24.473C16.2396 24.408 17.1595 24.5144 18.0365 24.7867C18.9486 25.0855 19.6554 25.6935 20.3295 26.3463C20.8577 26.8587 21.3562 27.3995 21.9097 27.8865C22.5989 28.5044 23.4817 28.8606 24.4051 28.8934C24.4542 28.8889 24.5003 28.8949 24.6075 28.9024Z" fill="#D2AC68"/>
<path d="M53.7952 18.875C54.2416 19.8072 53.9514 20.8858 53.1256 21.5446C52.2997 22.2034 51.34 22.5037 50.3192 22.6531C49.9279 22.7083 49.5365 22.7457 49.1452 22.8025C47.6959 23.0026 46.2034 24.3292 45.882 25.7006C45.8674 25.7461 45.8584 25.7933 45.8552 25.841C45.8552 25.977 45.8076 25.9904 45.6797 25.9501C44.1783 25.5019 42.8093 25.8127 41.5669 26.7269C41.1324 27.0481 40.8511 27.5277 40.5 27.934C39.7783 28.7691 38.9465 29.4488 37.8513 29.7267C37.4496 29.8382 37.0267 29.848 36.6203 29.7552C36.2139 29.6624 35.8367 29.4699 35.5226 29.1948C35.4185 29.1258 35.3356 29.0291 35.2831 28.9155C35.6149 28.8617 35.9422 28.8512 36.2637 28.7825C37.0255 28.6182 37.6326 28.185 38.1846 27.6651C38.7798 27.1124 39.3423 26.5387 39.9182 25.974C40.9359 24.9791 42.1769 24.5264 43.5771 24.4801C43.9328 24.4667 44.2884 24.4622 44.644 24.4801C44.7202 24.4917 44.798 24.4769 44.8645 24.438C44.9311 24.3992 44.9824 24.3386 45.0101 24.2665C45.4175 23.4755 45.9763 22.773 46.6543 22.1989C47.3983 21.579 48.3 21.3026 49.2211 21.0994C49.7359 20.9829 50.2538 20.8798 50.7701 20.7663C51.9858 20.4914 53.1137 20.0716 53.7952 18.875Z" fill="#D2AC68"/>
<path d="M36.1721 30.3879C36.4399 30.4163 36.681 30.4447 36.9161 30.4656C37.6359 30.514 38.3555 30.367 38.9992 30.0398C39.6733 29.7216 40.3057 29.3347 40.956 28.9747C41.6494 28.5907 42.3606 28.2546 43.1522 28.1231C44.0212 27.9738 44.8798 28.0709 45.7354 28.2397C45.7983 28.2445 45.8603 28.2575 45.9199 28.2785C46.3931 28.5116 46.7115 28.3353 47.0761 27.9797C47.9689 27.1163 49.0194 26.5217 50.2812 26.3827C50.9807 26.3108 51.6849 26.2963 52.3867 26.3394C53.2451 26.4074 54.1087 26.3612 54.955 26.202C55.4871 26.0726 55.9825 25.8222 56.4028 25.47C56.4534 25.4311 56.5055 25.34 56.5784 25.3818C56.6513 25.4237 56.6111 25.5118 56.6126 25.5805C56.6275 26.5023 56.0799 27.2507 55.0963 27.6331C54.1507 27.9814 53.1339 28.0892 52.1367 27.9469C51.116 27.8259 50.1131 27.7467 49.1384 28.1948C48.3111 28.5773 47.5716 29.0523 47.14 29.8964C47.0924 29.9905 47.0493 29.9995 46.9585 29.9472C45.7681 29.2705 44.5212 29.2705 43.2385 29.5976C42.6433 29.747 42.1642 30.125 41.6761 30.4745C40.9018 31.0548 40.0046 31.4479 39.0543 31.6233C38.1615 31.7727 37.3386 31.6413 36.6408 31.0183C36.4445 30.8414 36.2852 30.6271 36.1721 30.3879Z" fill="#D2AC68"/>
<path d="M23.7352 30.3331C23.5763 30.6421 23.3503 30.9114 23.074 31.1211C22.7977 31.3307 22.478 31.4755 22.1386 31.5447C21.161 31.7568 20.2503 31.4999 19.362 31.0965C18.7951 30.8411 18.31 30.4601 17.7936 30.1225C16.2372 29.1037 14.6227 29.0603 12.9696 29.873C12.8892 29.9134 12.8208 29.9686 12.7612 29.8446C12.1899 28.7825 11.2256 28.2581 10.1171 27.925C9.45642 27.7218 8.7898 27.7756 8.12169 27.8637C7.02206 28.0012 5.93286 27.9997 4.87638 27.6038C4.24994 27.3692 3.72914 27.0062 3.44345 26.3683C3.31965 26.0924 3.26353 25.7907 3.27977 25.4884C3.27977 25.4302 3.25298 25.3495 3.33036 25.3226C3.40773 25.2957 3.42857 25.3629 3.47023 25.3958C3.89278 25.7573 4.3945 26.0132 4.93441 26.1428C5.67882 26.2859 6.438 26.336 7.19467 26.2921C8.26603 26.2518 9.34333 26.1965 10.3953 26.4834C11.2599 26.7179 11.992 27.1945 12.666 27.7681C12.8477 27.921 13.0215 28.083 13.1868 28.2536C13.2269 28.3019 13.2811 28.3363 13.3417 28.3518C13.4024 28.3674 13.4664 28.3633 13.5246 28.3403C14.2904 28.117 15.0827 27.9989 15.8801 27.9892C16.8592 27.9817 17.7564 28.288 18.6135 28.7362C19.3754 29.1365 20.1015 29.6146 20.8827 29.9686C21.9154 30.4392 22.3856 30.499 23.7352 30.3331Z" fill="#D2AC68"/>
<path d="M57.8476 31.3688C57.7938 31.6893 57.6651 31.9924 57.4722 32.2533C57.2793 32.5143 57.0275 32.7257 56.7376 32.8702C56.0427 33.2347 55.2942 33.2855 54.5264 33.2452C53.5429 33.1959 52.6456 32.7865 51.6993 32.5908C50.1071 32.2637 48.6637 32.6102 47.4525 33.7471C47.3811 33.8143 47.3484 33.8382 47.268 33.7606C46.6073 33.1182 45.78 32.8836 44.8962 32.7357C43.8099 32.552 42.8219 32.8627 41.8443 33.281C41.122 33.5842 40.3502 33.7508 39.5677 33.7725C38.7731 33.8024 38.0068 33.6769 37.3714 33.1286C37.107 32.9001 36.9078 32.6052 36.794 32.2741C36.7747 32.2174 36.7196 32.1516 36.7702 32.0963C36.8208 32.0411 36.8878 32.0963 36.9428 32.1203C37.7342 32.4313 38.6 32.4979 39.4293 32.3115C40.0007 32.1905 40.5616 32.0321 41.1211 31.8633C41.9276 31.6183 42.7371 31.3718 43.5867 31.321C44.8128 31.2463 45.9407 31.6108 47.021 32.1471C47.109 32.2003 47.2106 32.2263 47.3132 32.2221C47.4159 32.2178 47.515 32.1835 47.5983 32.1232C48.4661 31.5804 49.4399 31.2309 50.4538 31.0984C51.2216 31.0133 51.979 31.1343 52.7319 31.2911C53.6247 31.4749 54.4937 31.7109 55.3984 31.811C56.1078 31.8873 56.8249 31.7804 57.4816 31.5003C57.5768 31.4614 57.6706 31.4181 57.7643 31.3793C57.7917 31.3733 57.8196 31.3698 57.8476 31.3688Z" fill="#D2AC68"/>
<path d="M56.7022 35.2135C56.7127 35.203 56.729 35.1836 56.7305 35.1836C56.7558 35.203 56.7424 35.2194 56.7231 35.2344L56.7022 35.2135Z" fill="#D2AC68"/>
<path d="M39.8541 50.594C39.4628 50.1951 38.6057 48.8357 38.57 48.7789L38.9702 48.5234C39.2098 48.9044 39.8973 49.9576 40.1919 50.2593L39.8541 50.594Z" fill="#800000"/>
<path d="M39.3541 49.3693C39.2659 49.368 39.1784 49.3549 39.0937 49.3305L39.2216 48.9465C39.2915 48.974 39.369 48.974 39.4389 48.9465C39.4619 48.9326 39.4793 48.9109 39.488 48.8853V48.0547H39.9626V48.9301C39.9641 48.952 39.9641 48.974 39.9626 48.9958C39.9603 49.0155 39.9537 49.0343 39.9433 49.0511C39.8871 49.1363 39.8116 49.2069 39.7231 49.2573L39.6963 49.2752C39.5935 49.3386 39.4747 49.3713 39.3541 49.3693Z" fill="#800000"/>
<path d="M40.2589 49.2929L40.0298 48.9388H40.7753V48.041H41.244V50.6404H40.7753V49.2989L40.2589 49.2929Z" fill="#800000"/>
<path d="M43.2942 48.1123H42.8166V49.6197C42.8164 49.6456 42.8091 49.671 42.7953 49.6929C42.7816 49.7149 42.762 49.7325 42.7387 49.7439C42.7155 49.7552 42.6896 49.7598 42.6639 49.7571C42.6382 49.7545 42.6138 49.7446 42.5934 49.7287C42.4758 49.6361 42.1782 49.3941 41.952 49.2103C41.9314 49.1937 41.9164 49.171 41.9092 49.1454C41.9019 49.1198 41.9028 49.0926 41.9116 49.0675C41.9204 49.0424 41.9368 49.0207 41.9584 49.0053C41.98 48.99 42.0059 48.9817 42.0324 48.9818H42.2987V48.1108H41.15V47.7852H43.2897" fill="#800000"/>
<path d="M49.2712 48.0753V50.6403H48.7475V49.2091H47.9276V49.6394C47.9281 49.6676 47.9198 49.6953 47.9038 49.7185C47.8878 49.7417 47.8649 49.7592 47.8384 49.7687C47.8119 49.7781 47.7831 49.7789 47.7561 49.771C47.7291 49.763 47.7053 49.7468 47.688 49.7245C47.4961 49.4855 47.2416 49.1703 47.1434 49.0463C47.1279 49.0244 47.1185 48.9987 47.1162 48.9719C47.114 48.9451 47.119 48.9182 47.1308 48.8941C47.1425 48.8699 47.1605 48.8493 47.1829 48.8346C47.2053 48.8198 47.2312 48.8114 47.258 48.8103H48.746V48.0723" fill="#800000"/>
<path d="M44.0351 48.1152H43.5188V50.6429H44.0351V48.1152Z" fill="#800000"/>
<path d="M46.5158 48.0938H46.0397V48.9572H46.5158V48.0938Z" fill="#800000"/>
<path d="M45.8778 50.5743C45.7975 50.5712 45.7177 50.5596 45.6397 50.54C45.4465 50.4843 45.2671 50.3886 45.113 50.2591C44.9444 50.1266 44.8106 49.9548 44.7231 49.7587C44.666 49.6197 44.6405 49.4696 44.6487 49.3195C44.6573 49.1353 44.7256 48.9589 44.8433 48.8173C44.961 48.6757 45.1215 48.5767 45.3005 48.5352H45.3228H46.165V48.9639H45.3719C45.2884 48.9884 45.2146 49.0386 45.1612 49.1075C45.1078 49.1765 45.0774 49.2606 45.0743 49.3478C45.049 49.8214 45.5995 50.0709 45.6695 50.0948C45.7039 50.1119 45.7404 50.1244 45.7781 50.1321C45.8537 50.1503 45.9322 50.1531 46.0088 50.1403C46.0855 50.1274 46.1589 50.0993 46.2245 50.0574C46.3158 49.9837 46.3795 49.8811 46.4052 49.7663C46.4308 49.6515 46.417 49.5314 46.3659 49.4255C46.3578 49.4115 46.3488 49.398 46.3391 49.3852L46.3316 49.3732C46.3205 49.3554 46.3081 49.3384 46.2944 49.3224L46.6114 49.0356C46.6407 49.0675 46.6671 49.102 46.6902 49.1387C46.7085 49.1652 46.7254 49.1926 46.7408 49.2209C46.8574 49.4497 46.8788 49.7156 46.8003 49.9603C46.7605 50.0705 46.6999 50.172 46.6218 50.2591C46.5589 50.335 46.4846 50.4005 46.4016 50.4533C46.2887 50.5169 46.1631 50.5541 46.034 50.5624C45.9823 50.5701 45.9301 50.5741 45.8778 50.5743Z" fill="#800000"/>
<path d="M41.2963 47.2454H40.7071L40.8291 46.6777H41.4184L41.2963 47.2454Z" fill="#800000"/>
<path d="M12.7236 48.5514C12.6381 48.5529 12.5537 48.5713 12.4753 48.6057C12.3969 48.64 12.3261 48.6896 12.2668 48.7516V48.1122H14.728V47.676H12.1448L11.4336 46.3867L11.0065 46.6721L11.8204 47.676H10.1941V48.1092H11.7922V49.3865C11.7267 49.4836 11.6568 49.7002 11.322 49.6852C10.9485 49.6718 10.9604 49.3177 10.9604 49.1967C10.9857 48.8083 11.5303 48.7904 11.5303 48.7904L11.4603 48.399C11.1843 48.3995 10.9174 48.4985 10.7074 48.6784C10.5363 48.8382 10.5036 48.9995 10.5036 49.2759C10.5036 49.5523 10.7089 50.0796 11.2669 50.0886C11.4931 50.0886 11.5645 50.0483 11.7922 49.8884V50.6354H12.2668V49.2445C12.3196 49.1653 12.3897 49.0992 12.4716 49.051C12.5536 49.0029 12.6454 48.9741 12.74 48.9667C12.8888 48.9667 13.0376 49.2132 13.0242 49.3387C13.0778 49.6942 12.5972 50.1289 12.5972 50.1289L12.9275 50.4113C13.0877 50.257 13.2314 50.0863 13.356 49.9019C13.4623 49.7329 13.5143 49.5353 13.5048 49.3357C13.5052 49.2326 13.4853 49.1304 13.4462 49.0351C13.4071 48.9397 13.3495 48.8531 13.2769 48.7802C13.2043 48.7073 13.118 48.6495 13.0231 48.6103C12.9281 48.571 12.8263 48.551 12.7236 48.5514Z" fill="#800000"/>
<path d="M16.941 48.1122H17.7059V50.6414H18.1731V48.1122H19.2028C19.2744 48.1705 19.331 48.2455 19.3675 48.3305C19.404 48.4156 19.4195 48.5083 19.4126 48.6007C19.4126 48.9473 18.9201 48.9771 18.7668 48.9771C18.6805 49.5209 19.2132 50.0722 19.7191 50.0722C20.0063 50.0722 20.1908 50.0811 20.4333 49.9362V50.6832H20.8976V48.1122H21.28V47.6804H18.1255C18.1262 47.6745 18.1262 47.6685 18.1255 47.6625C18.0645 47.3369 17.8814 46.7468 17.3473 46.4465C17.235 46.3742 17.108 46.3281 16.9756 46.3116C16.8433 46.295 16.7089 46.3084 16.5824 46.3509C16.4477 46.4046 16.3292 46.4927 16.2387 46.6063C16.1377 46.7324 16.0906 46.8936 16.1078 47.0545C16.1273 47.2724 16.1874 47.4847 16.2848 47.6804H14.4561V48.1122H16.4738M16.7044 47.6804C16.6939 47.6542 16.6814 47.6287 16.6672 47.6043C16.5666 47.4292 16.5066 47.2336 16.4917 47.0321C16.486 46.9998 16.487 46.9667 16.4947 46.9348C16.5023 46.9029 16.5165 46.873 16.5363 46.8469C16.5853 46.7852 16.6494 46.7373 16.7223 46.7079C16.7974 46.6867 16.8761 46.6819 16.9531 46.6941C17.0302 46.7062 17.1037 46.7349 17.1687 46.7781C17.5526 46.9947 17.6984 47.4474 17.749 47.6745L16.7044 47.6804ZM20.4333 48.1122V49.5C20.3404 49.5831 20.2318 49.6467 20.114 49.687C19.9962 49.7273 19.8715 49.7435 19.7474 49.7346C19.6608 49.7233 19.5785 49.6899 19.5084 49.6376C19.4383 49.5853 19.3828 49.5158 19.3471 49.4358C19.3271 49.3885 19.3165 49.3378 19.3159 49.2864C19.4051 49.2709 19.4914 49.2417 19.5718 49.1997C19.6522 49.1583 19.7204 49.0965 19.7697 49.0205C19.8195 48.9382 19.8482 48.8448 19.853 48.7486C19.8559 48.6988 19.8559 48.6489 19.853 48.5992C19.8442 48.4472 19.7977 48.2998 19.7176 48.1704C19.7176 48.1615 19.6804 48.1062 19.67 48.1062L20.4333 48.1122Z" fill="#800000"/>
<path d="M26.0765 48.111H27.8472V48.3828H27.1241C26.9336 48.3828 26.6851 48.4426 26.6643 48.7922C26.6643 49.2 27.0571 49.4211 27.0571 49.4211C26.9009 49.4943 26.9083 49.7886 26.9083 49.7886C26.9083 49.9992 27.1122 50.4459 27.7803 50.4459C28.1894 50.438 28.5811 50.2784 28.8799 49.9977V50.6431H29.3397V48.111H30.0703V50.6416H30.5316V48.111H33.3305V48.6473L33.323 48.6144C33.1338 48.6585 32.9546 48.7381 32.7948 48.8489C32.5843 48.6492 32.3076 48.5348 32.0181 48.5278C31.8914 48.525 31.7658 48.5503 31.65 48.602C31.5343 48.6536 31.4313 48.7303 31.3485 48.8265C31.1935 49.0088 31.1161 49.2448 31.1327 49.4838C31.1566 49.6965 31.242 49.8974 31.3782 50.062C31.4401 50.1462 31.5088 50.2252 31.5836 50.298C31.7642 50.4759 31.9824 50.6107 32.2219 50.6924L32.3573 50.2846C32.178 50.2228 32.0151 50.1206 31.8812 49.9858C31.8226 49.9301 31.7693 49.8691 31.722 49.8035C31.6353 49.7035 31.579 49.5806 31.5598 49.4495C31.5549 49.3865 31.5626 49.3232 31.5822 49.2632C31.6019 49.2032 31.6332 49.1477 31.6744 49.0999C31.7174 49.0515 31.7705 49.0131 31.8299 48.9873C31.8892 48.9615 31.9534 48.9489 32.0181 48.9505C32.1925 48.9574 32.3589 49.0256 32.4883 49.1432C32.3972 49.2717 32.3334 49.4177 32.3008 49.572L32.7189 49.6631C32.7584 49.5161 32.8357 49.3822 32.943 49.2747C33.0504 49.1672 33.184 49.0899 33.3305 49.0506V50.6356H33.7903V48.1124H34.7976C34.8693 48.1708 34.9258 48.2457 34.9624 48.3308C34.9989 48.4159 35.0144 48.5086 35.0075 48.601C35.0075 48.9475 34.5149 48.9774 34.3617 48.9774C34.2754 49.5212 34.8081 50.0724 35.314 50.0724C35.6012 50.0724 35.7857 50.0814 36.0267 49.9365V50.6834H36.4954V48.1124H36.8838V47.6807H25.8578C25.8117 47.618 25.709 47.4985 25.6807 47.4566C25.4203 47.1399 24.9367 46.5483 24.2508 46.4109C24.1001 46.3776 23.944 46.3787 23.7938 46.4141C23.6437 46.4496 23.5034 46.5184 23.3833 46.6156C23.2032 46.7649 22.9473 47.0966 23.1511 47.6747H22.7256V48.105H23.1571V50.6356H23.6184V48.111H26.0765ZM23.5603 47.6807C23.5573 47.6699 23.5533 47.6594 23.5484 47.6493C23.3996 47.3177 23.4264 47.0772 23.6258 46.9114C23.7017 46.8512 23.7898 46.8087 23.884 46.7867C23.9781 46.7648 24.0759 46.764 24.1704 46.7844C24.712 46.8934 25.1183 47.3819 25.3608 47.6807H23.5603ZM27.7952 50.0276C27.6746 50.0276 27.4276 49.9723 27.4276 49.7542C27.4276 49.5361 27.63 49.4435 27.8428 49.4435C27.9531 49.4399 28.0633 49.455 28.1686 49.4883L28.0764 49.1612C27.8598 49.102 27.6306 49.1077 27.4172 49.1776C27.3617 49.1808 27.3069 49.1636 27.2631 49.1292C27.2193 49.0949 27.1894 49.0457 27.1791 48.9909C27.1687 48.936 27.1785 48.8793 27.2067 48.8312C27.2349 48.7831 27.2796 48.7469 27.3324 48.7294H28.188V48.1095H28.8873V49.4734C28.5989 49.7812 28.2128 49.9788 27.7952 50.0321V50.0276ZM36.0267 49.4958C35.9341 49.5789 35.8258 49.6426 35.7082 49.6828C35.5906 49.7231 35.4662 49.7393 35.3423 49.7303C35.2556 49.7191 35.1734 49.6857 35.1033 49.6334C35.0332 49.5811 34.9777 49.5116 34.942 49.4316C34.9222 49.3841 34.9111 49.3335 34.9092 49.2822C34.9986 49.2671 35.085 49.2379 35.1652 49.1955C35.2463 49.1545 35.3151 49.0927 35.3646 49.0163C35.4144 48.934 35.443 48.8405 35.4479 48.7444C35.4514 48.6946 35.4514 48.6447 35.4479 48.595C35.4402 48.443 35.3942 48.2954 35.314 48.1662C35.314 48.1573 35.2768 48.102 35.2664 48.102H36.0282L36.0267 49.4958Z" fill="#800000"/>
<path d="M49.6526 47.6836H38.3141V48.1094H49.6526V47.6836Z" fill="#800000"/>
<path d="M16.9986 49.9617C17.0248 49.9208 17.0467 49.8772 17.064 49.8317C17.0824 49.787 17.0935 49.7396 17.0968 49.6913C17.0975 49.6512 17.0915 49.6113 17.0789 49.5733C17.0623 49.5166 17.0279 49.4668 16.9807 49.4314C16.9069 49.3822 16.8192 49.3581 16.7307 49.3627C16.323 49.3627 16.3811 49.7795 16.3811 49.7795V49.7914C16.0418 49.8034 15.7859 49.7346 15.6371 49.5912C15.5861 49.539 15.5466 49.4767 15.5209 49.4083C15.4953 49.3399 15.4842 49.2668 15.4883 49.1938C15.4905 49.1205 15.5209 49.0509 15.573 48.9994C15.6251 48.9479 15.6949 48.9186 15.768 48.9175H16.9197V48.0391H16.4837V48.4872H15.7397C15.5578 48.4945 15.3857 48.5718 15.2591 48.7031C15.1325 48.8344 15.0611 49.0096 15.0597 49.1924C15.056 49.3236 15.0795 49.4541 15.1287 49.5758C15.1779 49.6974 15.2517 49.8074 15.3454 49.899C15.5059 50.0476 15.706 50.1462 15.9213 50.1828L15.463 50.6056L15.6475 50.8177L16.2947 50.2202H16.3081H16.4153C16.432 50.2186 16.4485 50.2151 16.4644 50.2097L16.6385 50.737L17.0596 50.637L16.8304 50.1006C16.8654 50.0889 16.8975 50.0695 16.9242 50.0439C16.9529 50.0204 16.978 49.9927 16.9986 49.9617Z" fill="#800000"/>
<path d="M15.2092 48.956C15.2092 48.9067 15.2092 48.8574 15.2226 48.8066H13.7555C13.7287 48.8078 13.7028 48.8162 13.6804 48.831C13.658 48.8457 13.64 48.8663 13.6282 48.8904C13.6165 48.9146 13.6115 48.9415 13.6137 48.9683C13.6159 48.9951 13.6253 49.0208 13.6409 49.0427C13.7391 49.1667 13.9935 49.4819 14.1855 49.7209C14.2028 49.7432 14.2266 49.7594 14.2536 49.7674C14.2806 49.7753 14.3093 49.7745 14.3358 49.7651C14.3624 49.7556 14.3852 49.7381 14.4012 49.7149C14.4173 49.6917 14.4256 49.664 14.425 49.6358V49.2055H15.1839C15.1929 49.1248 15.2033 49.0397 15.2092 48.956Z" fill="#800000"/>
<path d="M25.6286 49.3981C25.4902 49.5339 25.3094 49.6178 25.1167 49.6356C25.0595 49.6429 25.0014 49.637 24.9469 49.6183C24.8924 49.5995 24.8429 49.5685 24.8022 49.5275C24.7615 49.4865 24.7307 49.4367 24.7122 49.3819C24.6938 49.327 24.6881 49.2687 24.6956 49.2113C24.6945 49.1586 24.7043 49.1062 24.7242 49.0574C24.7442 49.0087 24.7739 48.9645 24.8116 48.9278C24.8493 48.8911 24.8941 48.8626 24.9433 48.844C24.9925 48.8254 25.0449 48.8172 25.0974 48.8199C25.2145 48.8269 25.3302 48.85 25.4411 48.8886L25.328 48.4972C25.328 48.4972 24.4099 48.3105 24.2135 48.9663C24.1636 49.136 24.1698 49.3174 24.2314 49.4832C24.2867 49.6481 24.3951 49.7899 24.5395 49.8862C24.6839 49.9825 24.856 50.0278 25.0289 50.015C25.8399 50.015 25.8503 49.5191 25.8503 49.5191L25.6286 49.3981Z" fill="#800000"/>
<path d="M25.6208 47.9941V50.6413H26.0806V47.9941" fill="#800000"/>
<path d="M20.9753 43.6112H21.3369V43.293H17.416V43.6112H18.7418" fill="#D2AC67"/>
<path d="M25.1281 42.9267L25.2144 42.5562L24.8439 42.5547L24.7605 42.9267H25.1281Z" fill="#D2AC67"/>
<path d="M35.1304 44.3805V45.3904H35.4697V43.6112H35.8729V44.1609C35.8716 44.2428 35.8896 44.3239 35.9252 44.3976C35.9609 44.4713 36.0133 44.5356 36.0783 44.5852C36.1845 44.6688 36.312 44.7207 36.4462 44.735C36.5804 44.7493 36.7159 44.7253 36.8371 44.6659V45.3904H37.1764V43.6112H37.7939V45.3755H38.1332V43.6112H40.4158V44.3387C40.4152 44.4124 40.4302 44.4853 40.4597 44.5528C40.4892 44.6202 40.5325 44.6806 40.5869 44.7301C40.6929 44.8344 40.8357 44.8924 40.9842 44.8914C41.1366 44.8987 41.2862 44.8486 41.4038 44.751C41.4603 44.699 41.5047 44.635 41.5338 44.5637C41.5629 44.4925 41.5759 44.4156 41.5719 44.3387V43.6112H42.5659V43.293H34.7673V43.6112H35.1304V44.3805ZM40.9842 44.5419C40.9246 44.5409 40.8674 44.518 40.8235 44.4776C40.8013 44.4612 40.7832 44.4398 40.7706 44.4152C40.7579 44.3906 40.7511 44.3634 40.7506 44.3357V43.6082H41.2282V44.3357C41.2283 44.3649 41.2214 44.3936 41.2082 44.4196C41.195 44.4456 41.1759 44.468 41.1523 44.4851C41.1047 44.5233 41.0451 44.5434 40.9842 44.5419ZM36.5425 44.3999C36.4603 44.4028 36.3795 44.3775 36.3134 44.3282C36.2784 44.3012 36.2505 44.2659 36.2321 44.2256C36.2136 44.1852 36.2053 44.141 36.2077 44.0967V43.6082H36.8327V44.2924C36.7534 44.3619 36.6522 44.4011 36.547 44.4029L36.5425 44.3999Z" fill="#D2AC67"/>
<path d="M21.2398 46.1977L21.1044 46.3277C21.0961 46.3359 21.0848 46.3405 21.0732 46.3405C21.0615 46.3405 21.0503 46.3359 21.0419 46.3277L20.5196 45.8467C20.5151 45.8423 20.5115 45.8371 20.509 45.8313C20.5065 45.8256 20.5052 45.8193 20.5052 45.8131C20.5052 45.8068 20.5065 45.8005 20.509 45.7948C20.5115 45.789 20.5151 45.7838 20.5196 45.7794L20.7027 45.6061C20.7068 45.6016 20.7119 45.598 20.7175 45.5955C20.7232 45.5931 20.7292 45.5918 20.7354 45.5918C20.7415 45.5918 20.7476 45.5931 20.7532 45.5955C20.7589 45.598 20.7639 45.6016 20.7681 45.6061L21.2413 46.129C21.246 46.1335 21.2497 46.1388 21.2522 46.1448C21.2547 46.1508 21.2559 46.1572 21.2558 46.1637C21.2556 46.1702 21.2541 46.1766 21.2514 46.1824C21.2486 46.1883 21.2447 46.1935 21.2398 46.1977Z" fill="#D2AC68"/>
<path d="M32.2983 46.1971L32.1644 46.327C32.1558 46.3353 32.1443 46.34 32.1324 46.34C32.1204 46.34 32.109 46.3353 32.1004 46.327L31.5796 45.846C31.5746 45.8419 31.5706 45.8368 31.5678 45.831C31.5651 45.8252 31.5637 45.8188 31.5637 45.8124C31.5637 45.8059 31.5651 45.7996 31.5678 45.7938C31.5706 45.788 31.5746 45.7828 31.5796 45.7788L31.7626 45.6055C31.7669 45.6011 31.772 45.5977 31.7776 45.5954C31.7832 45.593 31.7893 45.5918 31.7953 45.5918C31.8014 45.5918 31.8075 45.593 31.8131 45.5954C31.8187 45.5977 31.8238 45.6011 31.8281 45.6055L32.3013 46.1283C32.3059 46.1329 32.3095 46.1384 32.3118 46.1444C32.3142 46.1504 32.3153 46.1569 32.315 46.1634C32.3147 46.1698 32.3131 46.1762 32.3102 46.182C32.3073 46.1878 32.3033 46.1929 32.2983 46.1971Z" fill="#D2AC68"/>
<path d="M28.0777 45.3904V43.6112H28.6193V44.1609C28.6184 44.2428 28.6365 44.3238 28.6721 44.3974C28.7078 44.471 28.76 44.5353 28.8247 44.5852C28.9311 44.6682 29.0584 44.7199 29.1923 44.7347C29.3263 44.7495 29.4617 44.7267 29.5835 44.6688V45.3904H29.9243V43.6112H31.573V44.0041C31.573 44.0041 30.8439 43.9966 30.5909 44.0041C30.3618 44.0115 30.2933 44.1535 30.4243 44.3506C30.4998 44.4524 30.5829 44.5483 30.6728 44.6375C30.6924 44.6676 30.7207 44.691 30.7539 44.7046C30.7872 44.7182 30.8237 44.7214 30.8588 44.7137C30.9421 44.6898 30.9257 44.6016 30.9257 44.5329C30.9257 44.3835 30.9629 44.3462 31.1251 44.3402H31.5715V45.3859H31.9078V43.6112H32.2054V43.293H26.5986V43.6112H26.7742V44.1609C26.7729 44.2428 26.7909 44.3239 26.8265 44.3976C26.8622 44.4713 26.9146 44.5356 26.9796 44.5852C27.1061 44.6864 27.2642 44.7393 27.426 44.7346C27.5359 44.7356 27.6445 44.7105 27.7429 44.6614V45.3859M27.7429 44.2909C27.662 44.3603 27.5591 44.3985 27.4527 44.3985C27.3705 44.4013 27.2897 44.376 27.2236 44.3267C27.1886 44.2997 27.1607 44.2644 27.1423 44.2241C27.1239 44.1837 27.1155 44.1395 27.1179 44.0952V43.6067H27.7414L27.7429 44.2909ZM29.2785 44.4029C29.2378 44.403 29.1975 44.3947 29.1602 44.3785C29.1228 44.3623 29.0891 44.3386 29.0613 44.3088C29.031 44.2821 29.0067 44.2493 28.99 44.2124C28.9733 44.1756 28.9647 44.1356 28.9645 44.0952V43.7262L29.4466 44.376C29.3914 44.3968 29.333 44.4074 29.274 44.4074L29.2785 44.4029ZM29.588 44.1535L29.1654 43.6067H29.588V44.1535Z" fill="#D2AC68"/>
<path d="M27.8905 46.2206C27.8287 46.2213 27.7674 46.2091 27.7105 46.1847C27.6657 46.165 27.6257 46.1358 27.5931 46.0992C27.5605 46.0627 27.5361 46.0195 27.5215 45.9726C27.4974 45.9077 27.4899 45.8378 27.4995 45.7692C27.5091 45.7006 27.5356 45.6354 27.5766 45.5797C27.6442 45.5001 27.7292 45.4372 27.8249 45.3958C27.9206 45.3543 28.0245 45.3355 28.1286 45.3407C28.2068 45.3393 28.2845 45.354 28.3569 45.3838C28.4293 45.4136 28.4949 45.4579 28.5497 45.514C28.6851 45.6634 28.7476 45.8815 28.7372 46.1937L28.4485 46.2639C28.4723 45.9935 28.4217 45.7948 28.3414 45.7097C28.3123 45.6814 28.2777 45.6594 28.2399 45.6451C28.202 45.6307 28.1616 45.6242 28.1212 45.626C28.0628 45.6225 28.0043 45.6317 27.9498 45.6531C27.8954 45.6746 27.8462 45.7076 27.8057 45.75C27.7917 45.7686 27.783 45.7906 27.7804 45.8137C27.7777 45.8368 27.7814 45.8602 27.7908 45.8815C27.8012 45.9084 27.8131 45.9188 27.8265 45.9233C27.9098 45.9404 27.9963 45.9305 28.0735 45.8949L28.1866 46.1564C28.0929 46.1965 27.9924 46.2183 27.8905 46.2206Z" fill="#D2AC68"/>
<path d="M39.5464 43.4961V45.4217H39.8812V43.4961" fill="#D2AC67"/>
<path d="M39.5532 44.5195C39.4529 44.6186 39.3214 44.6798 39.1812 44.6928C39.1396 44.6979 39.0974 44.6934 39.0578 44.6796C39.0182 44.6659 38.9822 44.6432 38.9526 44.6134C38.9231 44.5836 38.9007 44.5473 38.8872 44.5075C38.8737 44.4677 38.8694 44.4253 38.8747 44.3835C38.8738 44.3446 38.8809 44.306 38.8958 44.2701C38.9106 44.2341 38.9327 44.2017 38.9607 44.1748C38.9887 44.148 39.022 44.1273 39.0584 44.1141C39.0949 44.1009 39.1337 44.0955 39.1723 44.0982C39.2575 44.1031 39.3416 44.1197 39.4223 44.1475L39.3404 43.8636C39.3404 43.8636 38.6723 43.7277 38.5295 44.2043C38.4934 44.3279 38.4981 44.46 38.5429 44.5807C38.5829 44.7008 38.6617 44.8041 38.7669 44.8742C38.872 44.9443 38.9974 44.9772 39.1232 44.9676C39.7184 44.9676 39.7184 44.6076 39.7184 44.6076L39.5532 44.5195Z" fill="#D2AC67"/>
<path d="M41.9244 43.4961V45.4217H42.2592V43.4961" fill="#D2AC67"/>
<path d="M39.4394 46.3569C39.3029 46.3628 39.1683 46.3229 39.0569 46.2434C38.9966 46.1928 38.9509 46.1269 38.9248 46.0525C38.8986 45.9781 38.8928 45.898 38.9081 45.8206V45.8072C38.9974 45.4083 39.4736 45.3321 39.7429 45.35H39.8828V45.6279H39.7236C39.7236 45.6279 39.2504 45.6055 39.1864 45.855C39.1775 45.9521 39.2087 45.9909 39.2355 46.0044C39.3263 46.0761 39.545 46.0746 39.7429 46.0044L39.8426 46.2733C39.714 46.3245 39.5776 46.3528 39.4394 46.3569Z" fill="#D2AC67"/>
<path d="M24.7741 44.5218C24.674 44.6213 24.5424 44.6826 24.4021 44.6951C24.3612 44.6999 24.3197 44.6956 24.2807 44.6822C24.2417 44.6689 24.2062 44.6469 24.1768 44.618C24.1474 44.589 24.1248 44.5538 24.1107 44.5149C24.0967 44.476 24.0915 44.4344 24.0956 44.3933C24.0949 44.3545 24.1022 44.3159 24.1171 44.2801C24.132 44.2443 24.1541 44.2119 24.1821 44.1851C24.21 44.1583 24.2432 44.1376 24.2796 44.1243C24.3159 44.111 24.3546 44.1055 24.3932 44.1079C24.4784 44.1129 24.5625 44.1295 24.6432 44.1572L24.5613 43.8734C24.5613 43.8734 23.8932 43.7375 23.7504 44.214C23.7143 44.3377 23.719 44.4697 23.7638 44.5905C23.8038 44.7106 23.8826 44.8139 23.9877 44.884C24.0929 44.9541 24.2183 44.9869 24.3441 44.9774C24.9393 44.9774 24.9393 44.6174 24.9393 44.6174L24.7741 44.5218Z" fill="#D2AC67"/>
<path d="M24.766 43.4961V45.4217H25.1008V43.4961" fill="#D2AC67"/>
<path d="M22.4254 43.293V43.6112H23.9506H24.6946H25.0354H25.3954V43.293H22.4254Z" fill="#D2AC67"/>
<path d="M23.3193 45.4559L22.736 44.7851C22.6761 44.7074 22.6393 44.6143 22.6298 44.5165C22.6204 44.4187 22.6386 44.3202 22.6825 44.2324C22.7258 44.1427 22.7935 44.0671 22.8777 44.0142C22.9619 43.9614 23.0593 43.9334 23.1586 43.9336H23.8729V44.2189H23.1586C23.1115 44.2202 23.0658 44.2349 23.0268 44.2614C22.9878 44.2878 22.9571 44.3249 22.9384 44.3683C22.9178 44.4072 22.9087 44.4512 22.9121 44.4951C22.9155 44.5391 22.9313 44.5811 22.9577 44.6163L23.5351 45.2796L23.3193 45.4559Z" fill="#D2AC67"/>
<path d="M20.1603 45.4559L19.577 44.7851C19.5171 44.7074 19.4803 44.6143 19.4708 44.5165C19.4613 44.4187 19.4795 44.3202 19.5234 44.2324C19.5668 44.1427 19.6344 44.0671 19.7187 44.0142C19.8029 43.9614 19.9002 43.9334 19.9996 43.9336H20.7153V44.2189H20.004C19.9569 44.2202 19.9112 44.2349 19.8722 44.2614C19.8332 44.2878 19.8025 44.3249 19.7838 44.3683C19.7632 44.4072 19.7541 44.4512 19.7575 44.4951C19.7609 44.5391 19.7768 44.5811 19.8031 44.6163L20.3805 45.2796L20.1603 45.4559Z" fill="#D2AC67"/>
<path d="M18.1967 45.4559L17.6134 44.7851C17.5535 44.7074 17.5167 44.6143 17.5072 44.5165C17.4978 44.4187 17.516 44.3202 17.5599 44.2324C17.6031 44.1426 17.6707 44.0668 17.755 44.014C17.8392 43.9611 17.9367 43.9332 18.036 43.9336H18.7517V44.2189H18.036C17.9889 44.2202 17.9432 44.2349 17.9042 44.2614C17.8652 44.2878 17.8345 44.3249 17.8158 44.3683C17.7952 44.4072 17.786 44.4512 17.7895 44.4951C17.7929 44.5391 17.8087 44.5811 17.8351 44.6163L18.411 45.2796L18.1967 45.4559Z" fill="#D2AC67"/>
<path d="M41.7005 46.3346H41.6693C41.1917 46.3211 41.0414 46.1314 40.964 45.9686C40.964 45.9611 40.964 45.9551 40.9551 45.9506L41.1559 45.8237L41.1783 45.8655C41.214 45.9417 41.2824 46.0851 41.6767 46.097C41.7823 46.1064 41.8882 46.0827 41.9799 46.0292C42.0716 45.9757 42.1445 45.895 42.1886 45.7983C42.1972 45.7821 42.2024 45.7644 42.204 45.7461C42.2055 45.7279 42.2033 45.7096 42.1975 45.6922C42.1891 45.6718 42.1754 45.654 42.1579 45.6406C42.1404 45.6273 42.1197 45.6188 42.0978 45.616C41.9699 45.5831 41.7675 45.7116 41.7065 45.7579L41.5577 45.5712C41.5904 45.5443 41.891 45.3172 42.1529 45.3859C42.2111 45.3982 42.2655 45.4246 42.3111 45.4629C42.3568 45.5012 42.3924 45.5502 42.4148 45.6055C42.4327 45.6538 42.4405 45.7052 42.4377 45.7567C42.4349 45.8081 42.4215 45.8583 42.3984 45.9043C42.3368 46.0367 42.2378 46.148 42.1138 46.2245C41.9897 46.301 41.846 46.3393 41.7005 46.3346Z" fill="#D2AC67"/>
<path d="M34.1395 44.093C34.0656 44.1468 33.9741 44.1703 33.8835 44.1588L34.01 44.4052C34.0756 44.3844 34.1448 44.3783 34.213 44.3873C34.2811 44.3963 34.3465 44.4203 34.4043 44.4575C34.439 44.4929 34.465 44.5359 34.4802 44.5831C34.4954 44.6303 34.4995 44.6804 34.4921 44.7294C34.4886 44.8009 34.4571 44.868 34.4043 44.9162C34.3607 44.9457 34.3096 44.9623 34.257 44.9642C34.2044 44.966 34.1524 44.953 34.1067 44.9266C33.9859 44.8598 33.8837 44.7638 33.8091 44.6473C33.7349 44.5309 33.6544 44.4187 33.5681 44.3111L33.2928 44.4919C33.4163 44.6547 33.5205 44.8325 33.6559 44.9849C33.7855 45.1458 33.9681 45.2549 34.1707 45.2926C34.2649 45.3022 34.3599 45.2891 34.448 45.2544C34.5361 45.2197 34.6147 45.1644 34.6772 45.0931C34.7398 45.0219 34.7845 44.9367 34.8077 44.8446C34.8309 44.7525 34.8319 44.6562 34.8106 44.5636L35.2465 44.4516L35.1781 44.2245C35.0313 44.2679 34.8823 44.3033 34.7317 44.3305C34.6777 44.2539 34.6095 44.1885 34.5308 44.1378C34.5775 44.0865 34.613 44.026 34.6353 43.9602C34.6576 43.8944 34.6661 43.8247 34.6603 43.7554C34.6538 43.6862 34.6335 43.619 34.6005 43.5579C34.5675 43.4968 34.5226 43.4431 34.4683 43.3999C34.3914 43.3445 34.3026 43.3079 34.2092 43.2929C34.1157 43.2779 34.02 43.2848 33.9297 43.3132C33.7487 43.3734 33.5883 43.4837 33.4669 43.6314L33.7169 43.848C33.7663 43.784 33.8282 43.7307 33.8988 43.6914C33.9694 43.6521 34.0473 43.6276 34.1276 43.6195C34.1657 43.6174 34.2036 43.6261 34.237 43.6446C34.2704 43.6631 34.298 43.6906 34.3166 43.724C34.3731 43.8555 34.2332 44.0228 34.135 44.093" fill="#D2AC67"/>
<path d="M19.0659 43.6113H18.7237V45.4414H19.0659V43.6113Z" fill="#D2AC67"/>
<path d="M21.0522 43.6113H20.71V45.4414H21.0522V43.6113Z" fill="#D2AC67"/>
</svg>
